# AST/ASF file generated using VICON BodyLanguage
# -----------------------------------------------
:version 1.10
:name VICON
:units
  mass 1.0
  length 0.45
  angle deg
:documentation
   .ast/.asf automatically generated from VICON data using
   VICON BodyBuilder and BodyLanguage model FoxedUp or BRILLIANT.MOD
:root
   order TX TY TZ RX RY RZ
   axis XYZ
   position 0 0 0  
   orientation 0 0 0 
:bonedata
  begin
     id 1 
     name lhipjoint
     direction 0.567725 -0.736092 0.368589 
     length 2.42353 
     axis 0 0 0  XYZ
  end
  begin
     id 2 
     name lfemur
     direction 0.34202 -0.939693 0  
     length 7.24894  
     axis 0 0 20  XYZ
    dof rx ry rz
    limits (-160.0 20.0)
           (-70.0 70.0)
           (-60.0 70.0)
  end
  begin
     id 3 
     name ltibia
     direction 0.34202 -0.939693 0   
     length 7.6997   
     axis 0 0 20   XYZ
    dof rx
    limits (-10.0 170.0)
  end
  begin
     id 4 
     name lfoot
     direction 0.100767 -0.276854 0.955614   
     length 2.37556   
     axis -90 7.62852e-016 20   XYZ
    dof rx rz
    limits (-45.0 90.0)
           (-70.0 20.0)
  end
  begin
     id 5 
     name ltoes
     direction 1.53592e-011 -4.21894e-011 1   
     length 1.18363   
     axis -90 7.62852e-016 20   XYZ
    dof rx
    limits (-90.0 20.0)
  end
  begin
     id 6 
     name rhipjoint
     direction -0.556459 -0.742938 0.372017   
     length 2.4012  
     axis 0 0 0  XYZ 
  end
  begin
     id 7 
     name rfemur
     direction -0.34202 -0.939693 0   
     length 7.5119   
     axis 0 0 -20   XYZ
    dof rx ry rz
    limits (-160.0 20.0)
           (-70.0 70.0)
           (-70.0 60.0)
  end
  begin
     id 8 
     name rtibia
     direction -0.34202 -0.939693 0   
     length 7.50155   
     axis 0 0 -20   XYZ
    dof rx
    limits (-10.0 170.0)
 end
 begin
     id 9 
     name rfoot
     direction -0.118427 -0.325376 0.938139   
     length 2.32487  
     axis -90 -7.62852e-016 -20   XYZ
    dof rx rz
    limits (-45.0 90.0)
           (-20.0 70.0)
  end
  begin
     id 10 
     name rtoes
     direction -1.53525e-011 -4.21868e-011 1   
     length 1.15233   
     axis -90 -7.62852e-016 -20   XYZ
    dof rx
    limits (-90.0 20.0)
  end
  begin
     id 11 
     name lowerback
     direction 0.0287568 0.999577 -0.00434502   
     length 2.15243   
     axis 0 0 0   XYZ
    dof rx ry rz
    limits (-20.0 45.0)
           (-30.0 30.0)
           (-30.0 30.0)
  end
  begin
     id 12 
     name upperback
     direction 0.0294009 0.99956 0.00404628   
     length 2.15427   
     axis 0 0 0   XYZ
    dof rx ry rz
    limits (-20.0 45.0)
           (-30.0 30.0)
           (-30.0 30.0)
  end
  begin
     id 13 
     name thorax
     direction 0.0151014 0.999868 0.0059419   
     length 2.14898   
     axis 0 0 0   XYZ
    dof rx ry rz
    limits (-20.0 45.0)
           (-30.0 30.0)
           (-30.0 30.0)
  end
  begin
     id 14 
     name lowerneck
     direction -0.0249197 0.989906 0.139515   
     length 1.6861   
     axis 0 0 0   XYZ
    dof rx ry rz
    limits (-20.0 45.0)
           (-30.0 30.0)
           (-30.0 30.0)
  end
  begin
     id 15 
     name upperneck
     direction 0.0438463 0.988795 -0.142693   
     length 1.71276   
     axis 0 0 0   XYZ
    dof rx ry rz
    limits (-20.0 45.0)
           (-30.0 30.0)
           (-30.0 30.0)
  end
  begin
     id 16
     name head
     direction 0.0148499 0.997845 -0.0639186  
     length 1.7209  
     axis 0 0 0   XYZ
    dof rx ry rz
    limits (-20.0 45.0)
           (-30.0 30.0)
           (-30.0 30.0)
  end
  begin
     id 17 
     name lclavicle
     direction 0.940298 0.323464 -0.105876  
     length 3.9048  
     axis 0 0 0   XYZ
    dof ry rz
    limits (-20.0 10.0)
           (0.0 20.0)
  end
  begin
     id 18 
     name lhumerus
     direction 1 -4.48954e-011 -4.9675e-028   
     length 4.6851   
     axis 180 -30 -90   XYZ
    dof rx ry rz
    limits (-60.0 90.0)
           (-90.0 90.0)
           (-90.0 90.0)
  end
  begin
     id 19
     name lradius
     direction 1 -4.48992e-011 -1.03359e-026   
     length 3.39626   
     axis 180 -30 -90   XYZ
    dof rx
    limits (-10.0 170.0)
  end
  begin
     id 20
     name lwrist
     direction 1 -4.48906e-011 -1.67336e-026   
     length 1.69813   
     axis 9.90442e-015 90 90   XYZ
    dof ry
    limits (-180.0 0.0)
 end
  begin
     id 21 
     name lhand
     direction 1 -4.49006e-011 -3.34673e-026   
     length 0.486078   
     axis 2.1355e-014 90 90   XYZ
    dof rx rz
    limits (-90.0 90.0)
           (-45.0 45.0)
  end
  begin
     id 22 
     name lfingers
     direction 1 -4.48992e-011 -6.69345e-026   
     length 0.391889   
     axis 4.27099e-014 90 90   XYZ
    dof rx
    limits (0.0 90.0)
  end
  begin
     id 23
     name lthumb
     direction 0.707107 -6.34926e-011 0.707107   
     length 0.562676   
     axis -90 45 2.85299e-015   XYZ
    dof rx rz
    limits (-45.0 45.0)
           (-45.0 45.0)
  end
  begin
     id 24 
     name rclavicle
     direction -0.882459 0.414895 -0.221648   
     length 3.44646  
     axis 0 0 0   XYZ 
    dof ry rz
    limits (-10.0 20.0)
           (-20.0 0.0)
  end
  begin
     id 25 
     name rhumerus
     direction -1 -4.48962e-011 -2.37984e-027  
     length 5.55576   
     axis 180 30 90   XYZ
    dof rx ry rz
    limits (-90.0 60.0)
           (-90.0 90.0)
           (-90.0 90.0)
  end
  begin
     id 26 
     name rradius
     direction -1 -4.48982e-011 -6.86791e-027   
     length 3.32774   
     axis 180 30 90   XYZ
    dof rx
    limits (-10.0 170.0)
  end
  begin
     id 27 
     name rwrist
     direction -1 -4.48961e-011 -1.67336e-026   
     length 1.66387   
     axis 9.90442e-015 -90 -90   XYZ
    dof ry
    limits (-180.0 0.0)
  end
  begin
     id 28
     name rhand
     direction -1 -4.4897e-011 -3.34673e-026   
     length 0.507628   
     axis 2.1355e-014 -90 -90   XYZ
    dof rx rz
    limits (-90.0 90.0)
           (-45.0 45.0)
  end
  begin
     id 29
     name rfingers
     direction -1 -4.48854e-011 -6.69345e-026   
     length 0.409263   
     axis 4.27099e-014 -90 -90   XYZ
    dof rx
    limits (0.0 90.0)
  end
  begin
     id 30
     name rthumb
     direction -0.707107 -6.34913e-011 0.707107   
     length 0.587622   
     axis -90 -45 -2.85299e-015   XYZ
    dof rx rz
    limits (-45.0 45.0)
           (-45.0 45.0)
  end
:hierarchy
  begin
    root lhipjoint rhipjoint lowerback
    lhipjoint lfemur
    lfemur ltibia
    ltibia lfoot
    lfoot ltoes
    rhipjoint rfemur
    rfemur rtibia
    rtibia rfoot
    rfoot rtoes
    lowerback upperback
    upperback thorax
    thorax lowerneck lclavicle rclavicle
    lowerneck upperneck
    upperneck head
    lclavicle lhumerus
    lhumerus lradius
    lradius lwrist
    lwrist lhand lthumb
    lhand lfingers
    rclavicle rhumerus
    rhumerus rradius
    rradius rwrist
    rwrist rhand rthumb
    rhand rfingers
  end

#!OML:ASF E:\motion texture\Top Level 1\Subject 1\Session 1\male.ASF
:FULLY-SPECIFIED
:DEGREES
80
root 42.2501 17.3476 4.50828 116.121 -82.4138 -105.498
lowerback -1.22 2.33369 3.08096
upperback -1.18789 3.05024 2.59998
thorax -0.515381 1.49362 0.964789
lowerneck -17.2952 -0.502367 -7.48805
upperneck 10.5674 0.219186 6.06265
head 6.00406 0.292237 3.18227
rclavicle 2.65688e-014 3.00662e-014
rhumerus -21.2528 21.845 -85.6707
rradius 59.8239
rwrist 14.0787
rhand -17.7239 -23.3963
rfingers 7.12502
rthumb 8.53683 -53.2038
lclavicle 2.65688e-014 3.00662e-014
lhumerus -29.5607 -0.419926 93.3081
lradius 55.6104
lwrist -13.468
lhand -14.4889 23.1666
lfingers 7.12502
lthumb 11.6577 52.8223
rfemur -1.93014 1.78856 31.665
rtibia 16.8135
rfoot -20.4715 -11.2599
rtoes 11.9453
lfemur -39.9656 -0.695787 -4.4479
ltibia 25.0983
lfoot -3.713 6.49284
ltoes -7.592
81
root 42.1475 17.3349 4.51463 116.347 -82.428 -105.628
lowerback -1.24045 2.35767 3.04211
upperback -1.2207 3.08352 2.55531
thorax -0.536978 1.51037 0.94102
lowerneck -17.2665 -0.506054 -7.49098
upperneck 10.4476 0.213021 6.0835
head 5.96166 0.2913 3.18697
rclavicle 8.69062e-015 -1.19768e-014
rhumerus -20.7997 22.2703 -85.5604
rradius 60.6613
rwrist 14.2292
rhand -17.8956 -23.3222
rfingers 7.12502
rthumb 8.37111 -53.1363
lclavicle 8.69062e-015 -1.19768e-014
lhumerus -29.2087 -0.973909 93.5376
lradius 56.1357
lwrist -13.5169
lhand -14.5751 23.1317
lfingers 7.12502
lthumb 11.5746 52.7921
rfemur -1.89379 1.64653 31.5577
rtibia 17.2122
rfoot -20.5092 -11.1158
rtoes 11.3624
lfemur -39.9954 -0.999848 -4.24712
ltibia 24.4978
lfoot -3.44243 6.48249
ltoes -7.14408
82
root 42.0427 17.3224 4.52202 116.527 -82.4488 -105.718
lowerback -1.25807 2.3803 3.00081
upperback -1.25339 3.11512 2.51216
thorax -0.56024 1.52629 0.920035
lowerneck -17.2409 -0.508784 -7.48394
upperneck 10.3344 0.207583 6.09229
head 5.92187 0.290111 3.18633
rclavicle 2.53016e-014 2.67862e-014
rhumerus -20.3424 22.6787 -85.4356
rradius 61.4832
rwrist 14.3726
rhand -18.058 -23.2551
rfingers 7.12502
rthumb 8.21433 -53.0754
lclavicle 2.53016e-014 2.67862e-014
lhumerus -28.8431 -1.52949 93.7615
lradius 56.643
lwrist -13.5714
lhand -14.6642 23.0908
lfingers 7.12502
lthumb 11.4886 52.7559
rfemur -1.89723 1.4742 31.4286
rtibia 17.6949
rfoot -20.5116 -10.9377
rtoes 10.743
lfemur -40.0204 -1.30342 -4.06899
ltibia 23.9822
lfoot -3.17952 6.44158
ltoes -6.70835
83
root 41.9357 17.3103 4.53055 116.669 -82.4782 -105.775
lowerback -1.27335 2.40146 2.95564
upperback -1.28613 3.14487 2.47035
thorax -0.585159 1.54131 0.902438
lowerneck -17.2121 -0.509658 -7.47555
upperneck 10.222 0.20438 6.09907
head 5.88168 0.289822 3.18503
rclavicle 7.57867e-015 5.08143e-014
rhumerus -19.8905 23.0689 -85.2971
rradius 62.2978
rwrist 14.5102
rhand -18.2165 -23.1861
rfingers 7.12502
rthumb 8.06137 -53.0124
lclavicle 7.57867e-015 5.08143e-014
lhumerus -28.4651 -2.08589 93.9804
lradius 57.1323
lwrist -13.6304
lhand -14.7602 23.0515
lfingers 7.12502
lthumb 11.396 52.7218
rfemur -1.94584 1.27305 31.2739
rtibia 18.2655
rfoot -20.4658 -10.7328
rtoes 10.073
lfemur -40.0419 -1.60442 -3.91913
ltibia 23.5524
lfoot -2.92894 6.36927
ltoes -6.27073
84
root 41.8266 17.2986 4.54021 116.765 -82.5173 -105.792
lowerback -1.28491 2.42067 2.90567
upperback -1.31896 3.17222 2.43025
thorax -0.61262 1.55515 0.889072
lowerneck -17.1763 -0.508408 -7.47216
upperneck 10.1049 0.20413 6.11105
head 5.83865 0.291096 3.1864
rclavicle 1.57599e-014 3.0588e-014
rhumerus -19.4409 23.4428 -85.1449
rradius 63.0976
rwrist 14.6406
rhand -18.3718 -23.1185
rfingers 7.12502
rthumb 7.91148 -52.9504
lclavicle 1.57599e-014 3.0588e-014
lhumerus -28.0761 -2.64303 94.1944
lradius 57.6051
lwrist -13.6914
lhand -14.8591 23.0153
lfingers 7.12502
lthumb 11.3006 52.6909
rfemur -2.04345 1.04847 31.0944
rtibia 18.9276
rfoot -20.3623 -10.5139
rtoes 9.33552
lfemur -40.0617 -1.89861 -3.80176
ltibia 23.2114
lfoot -2.69373 6.2621
ltoes -5.82048
85
root 41.7156 17.2874 4.55093 116.799 -82.5699 -105.752
lowerback -1.29353 2.43621 2.84782
upperback -1.35158 3.19485 2.39187
thorax -0.642069 1.5667 0.881648
lowerneck -17.1378 -0.504609 -7.47033
upperneck 9.98814 0.20747 6.1232
head 5.79511 0.294002 3.18842
rclavicle 2.85753e-015 4.69629e-015
rhumerus -18.9906 23.8036 -84.9792
rradius 63.8791
rwrist 14.7625
rhand -18.5237 -23.0526
rfingers 7.12502
rthumb 7.76492 -52.89
lclavicle 2.85753e-015 4.69629e-015
lhumerus -27.6769 -3.19979 94.4027
lradius 58.0617
lwrist -13.7526
lhand -14.9601 22.9816
lfingers 7.12502
lthumb 11.2032 52.6625
rfemur -2.19319 0.805054 30.8887
rtibia 19.6832
rfoot -20.2021 -10.2969
rtoes 8.54454
lfemur -40.0817 -2.18493 -3.72321
ltibia 22.9578
lfoot -2.4735 6.11506
ltoes -5.36047
86
root 41.6028 17.2766 4.56282 116.787 -82.6367 -105.67
lowerback -1.2987 2.44883 2.78183
upperback -1.38446 3.21379 2.35472
thorax -0.674249 1.57649 0.879797
lowerneck -17.0991 -0.498362 -7.46201
upperneck 9.87461 0.214031 6.1245
head 5.75235 0.297826 3.18622
rclavicle -6.3052e-015 -4.37326e-015
rhumerus -18.542 24.1507 -84.8003
rradius 64.6423
rwrist 14.8753
rhand -18.6759 -22.99
rfingers 7.12502
rthumb 7.61798 -52.8328
lclavicle -6.3052e-015 -4.37326e-015
lhumerus -27.2691 -3.75637 94.6057
lradius 58.5025
lwrist -13.8121
lhand -15.0663 22.9519
lfingers 7.12502
lthumb 11.1008 52.6383
rfemur -2.40178 0.545744 30.6546
rtibia 20.5376
rfoot -20.0068 -10.0752
rtoes 7.70638
lfemur -40.1033 -2.45865 -3.68857
ltibia 22.7897
lfoot -2.26857 5.92974
ltoes -4.89278
87
root 41.4885 17.2663 4.57595 116.751 -82.7172 -105.567
lowerback -1.29975 2.45899 2.70934
upperback -1.41783 3.22969 2.31832
thorax -0.709664 1.58482 0.882093
lowerneck -17.0598 -0.488883 -7.44946
upperneck 9.76283 0.225038 6.11742
head 5.70978 0.303286 3.18108
rclavicle 1.16677e-014 -1.19768e-014
rhumerus -18.0941 24.4865 -84.6098
rradius 65.3854
rwrist 14.9797
rhand -18.8245 -22.9344
rfingers 7.12502
rthumb 7.47452 -52.7823
lclavicle 1.16677e-014 -1.19768e-014
lhumerus -26.8529 -4.31307 94.8019
lradius 58.9288
lwrist -13.8678
lhand -15.1742 22.9252
lfingers 7.12502
lthumb 10.9967 52.6172
rfemur -2.67572 0.273257 30.391
rtibia 21.4923
rfoot -19.7827 -9.86088
rtoes 6.82423
lfemur -40.128 -2.71631 -3.699
ltibia 22.7059
lfoot -2.08074 5.70671
ltoes -4.42057
88
root 41.3729 17.2564 4.59035 116.69 -82.8119 -105.443
lowerback -1.29567 2.46718 2.6298
upperback -1.4504 3.24317 2.28313
thorax -0.747615 1.59202 0.889286
lowerneck -17.0205 -0.475871 -7.43359
upperneck 9.6532 0.240959 6.10319
head 5.66759 0.310685 3.17359
rclavicle 1.66436e-014 -4.1869e-014
rhumerus -17.6476 24.8085 -84.4062
rradius 66.1082
rwrist 15.074
rhand -18.9707 -22.8773
rfingers 7.12502
rthumb 7.33344 -52.7303
lclavicle 1.66436e-014 -4.1869e-014
lhumerus -26.4281 -4.87003 94.9925
lradius 59.3403
lwrist -13.9178
lhand -15.2876 22.9039
lfingers 7.12502
lthumb 10.8874 52.6016
rfemur -3.01655 -0.00961319 30.0972
rtibia 22.5434
rfoot -19.5292 -9.66625
rtoes 5.9044
lfemur -40.1547 -2.95725 -3.75612
ltibia 22.7035
lfoot -1.9109 5.44744
ltoes -3.94974
89
root 41.256 17.2471 4.60602 116.575 -82.9216 -105.268
lowerback -1.28463 2.47165 2.54511
upperback -1.48251 3.25197 2.24934
thorax -0.789385 1.59695 0.900407
lowerneck -16.9818 -0.458708 -7.41413
upperneck 9.54559 0.262874 6.07964
head 5.62575 0.32041 3.16311
rclavicle -6.58319e-015 3.09483e-014
rhumerus -17.2053 25.1202 -84.1912
rradius 66.812
rwrist 15.158
rhand -19.1204 -22.8251
rfingers 7.12502
rthumb 7.18894 -52.683
lclavicle -6.58319e-015 3.09483e-014
lhumerus -25.9979 -5.42559 95.1761
lradius 59.7387
lwrist -13.9625
lhand -15.4044 22.8866
lfingers 7.12502
lthumb 10.7747 52.5902
rfemur -3.42425 -0.299177 29.7745
rtibia 23.6825
rfoot -19.2459 -9.50589
rtoes 4.95327
lfemur -40.183 -3.18175 -3.86109
ltibia 22.7787
lfoot -1.75938 5.14944
ltoes -3.48174
